<svg width="29" height="30" viewBox="0 0 29 30" fill="none" xmlns="http://www.w3.org/2000/svg">
<path fill-rule="evenodd" clip-rule="evenodd" d="M20.9335 17.6327C20.5772 17.4544 18.8256 16.5928 18.499 16.474C18.1724 16.3551 17.935 16.2957 17.6975 16.6522C17.46 17.0088 16.7772 17.811 16.5693 18.0487C16.3615 18.2864 16.1538 18.3162 15.7975 18.1378C15.4412 17.9596 14.2933 17.5835 12.9325 16.3701C11.8734 15.4258 11.1584 14.2594 10.9505 13.9028C10.7427 13.5463 10.9284 13.3535 11.1068 13.1759C11.267 13.0164 11.463 12.76 11.6412 12.552C11.8193 12.344 11.8787 12.1955 11.9974 11.9578C12.1162 11.7201 12.0568 11.5121 11.9677 11.3338C11.8787 11.1556 11.1662 9.40253 10.8693 8.68944C10.5801 7.99497 10.2864 8.08894 10.0677 8.07805C9.86013 8.06771 9.62241 8.06552 9.38489 8.06552C9.14738 8.06552 8.76145 8.15469 8.43483 8.51117C8.10828 8.86771 7.18794 9.72943 7.18794 11.4824C7.18794 13.2354 8.46455 14.929 8.64269 15.1667C8.82082 15.4044 11.1549 19.0018 14.7287 20.5445C15.5787 20.9114 16.2424 21.1305 16.7597 21.2948C17.6132 21.5658 18.3899 21.5276 19.0037 21.4359C19.6882 21.3336 21.1116 20.5742 21.4085 19.7423C21.7053 18.9104 21.7053 18.1973 21.6163 18.0487C21.5272 17.9002 21.2897 17.811 20.9335 17.6327ZM14.4329 26.5055H14.4281C12.3016 26.5047 10.2159 25.9337 8.39634 24.8542L7.96356 24.5974L3.47822 25.7737L4.67546 21.4019L4.39363 20.9537C3.20735 19.0674 2.58083 16.8872 2.58172 14.6487C2.58432 8.11661 7.90069 2.8023 14.4377 2.8023C17.603 2.80353 20.5785 4.03748 22.816 6.27675C25.0535 8.5161 26.2851 11.4927 26.2839 14.6583C26.2812 21.1909 20.9649 26.5055 14.4329 26.5055ZM24.5189 4.57527C21.8269 1.88103 18.2469 0.396551 14.4327 0.395044C6.57371 0.395044 0.177418 6.78887 0.174267 14.6479C0.17324 17.1601 0.829765 19.6124 2.07748 21.7739L0.0546875 29.1602L7.61328 27.1781C9.69586 28.3136 12.0406 28.912 14.427 28.9131H14.4328H14.4329C22.2911 28.9131 28.688 22.5184 28.6912 14.6593C28.6926 10.8507 27.211 7.26945 24.5189 4.57527Z" fill="white"/>
</svg>
